<svg width="197" height="221" viewBox="0 0 197 221" fill="none" xmlns="http://www.w3.org/2000/svg">
<path fill-rule="evenodd" clip-rule="evenodd" d="M89.0033 0.0537814C81.3829 0.305697 65.1258 1.4199 59.9814 2.04248C47.6224 3.53954 22.4641 7.7411 21.7814 8.4225C21.6536 8.55012 19.968 14.5839 18.0368 21.8295C14.4312 35.3586 13.256 39.6512 8.59521 56.3276C2.85932 76.8504 -1.87927 98.2356 0.740184 119.706C2.49242 134.072 7.81916 146.588 17.2619 158.521C31.0963 176.007 54.4312 191.922 72.8919 204.231C84.4393 211.931 94.7103 218.654 96.9673 219.989L98.2804 220.765L102.61 218.014C110.704 212.873 135.938 195.903 141.972 191.544C156.751 180.868 163.656 175.129 171.847 166.71C184.246 153.968 190.777 142.842 194.129 128.747C195.937 121.147 196.36 115.731 196.102 103.461C195.74 86.2801 194.708 80.8156 185.444 47.0733C183.107 38.5603 182.251 35.423 177.43 17.7023C176.226 13.2766 175.145 9.34804 175.029 8.97183C174.76 8.10289 174.819 8.11842 166.193 6.61802C140.405 2.13348 123.781 0.418893 102.707 0.0704278C97.4965 -0.0161336 91.3292 -0.023902 89.0011 0.0526716L89.0033 0.0537814ZM92.2031 172.333C96.2035 181.722 98.8796 194.783 105.358 202.176L98.2781 207.109L90.2663 201.153L92.2031 172.333ZM137.164 113.999C132.798 115.329 128.931 116.508 125.407 117.583C126.779 117.563 128.361 117.544 130.199 117.524L143.171 117.381L143.594 115.525C143.771 114.747 144.36 113.163 145.037 111.602C142.76 112.294 140.156 113.086 137.164 113.997V113.999ZM104.689 123.931C101.798 124.821 98.8907 125.719 95.7921 126.678C95.7899 127.504 95.7832 128.378 95.7732 129.284C95.712 134.617 95.7676 138.693 95.8977 138.342C96.0278 137.992 96.4892 136.596 96.9228 135.241C97.9813 131.933 99.748 129.017 102.426 126.157C103.189 125.343 103.938 124.603 104.689 123.931ZM85.0385 129.221L42.8193 141.078C39.3716 137.73 37.5793 134.864 35.22 130.785C31.75 123.374 31.3787 120.991 31.9413 120.477L115.911 71.9642L118.033 70.7334L121.194 79.606C125.526 89.373 128.684 93.994 134.767 99.1001C138.117 101.911 146.766 105.981 147.822 105.516C148.086 105.399 146.765 104.013 144.887 102.436C138.494 97.0636 134.958 93.5157 129.402 80.9332C124.648 70.1674 124.534 69.0455 124.14 63.8607C123.909 60.8255 124.456 58.2719 124.269 58.1975C124.174 58.1598 121.874 59.4305 117.955 61.6689L39.7418 107.14C38.5788 107.816 28.0399 114.352 27.8664 113.891L27.2238 112.18C26.3666 109.898 55.3373 90.7735 58.406 88.5728L55.1694 72.9707C52.6834 60.972 52.6578 60.3216 54.5624 57.9046C55.8955 56.2133 57.4698 55.5086 61.479 54.8072L65.0213 54.1869L67.5474 65.7539C68.9371 72.1151 71.014 79.6304 71.0963 79.6837C71.1786 79.7369 71.8623 79.5416 72.6162 79.2475L73.987 78.7137L70.1268 61.5857L67.1393 46.7226L67.812 45.1423C68.9838 42.3879 69.8922 41.8197 74.7219 40.8198L78.9446 39.9453L82.309 55.6651L85.9347 72.5179L87.4045 72.1007L88.8743 71.6834L85.3554 54.0049C81.9599 36.7569 81.9666 36.8069 83.1384 34.7338C83.7166 33.7106 85.1842 32.5332 86.6373 31.9261C87.7058 31.48 92.9425 30.5312 93.9076 30.6089C94.1766 30.6311 95.1461 34.9347 96.9951 44.3189C98.4771 51.8419 100.207 59.9188 100.838 62.2659L101.853 66.0414C102.799 65.4909 103.718 64.956 104.611 64.4377L102.224 52.1582C99.241 36.8135 99.251 37.202 101.797 34.493C103.036 33.1757 103.197 33.1092 107.19 32.2713L111.308 31.4079L114.724 46.9568L116.997 57.2975C126.538 51.8575 130.593 49.7467 131.372 49.7068C135.863 49.4726 141.482 54.2024 147.04 62.8974C148.917 65.8349 150.614 68.5949 150.811 69.0311C151.062 69.5893 152.487 69.243 155.633 67.858L160.098 65.8915L161.019 67.9768C162.527 71.3871 165.135 80.5737 165.857 85.0194C166.314 87.836 166.454 90.6048 166.304 93.1817C167.402 92.9231 168.581 92.7012 169.878 92.4992C173.987 91.8622 174.91 91.8389 174.91 92.3693C174.91 92.73 172.454 98.2278 168.602 106.494C167.084 109.752 161.878 121.061 158.692 128.018C157.518 130.583 155.385 135.184 153.952 138.242L151.345 143.802L136.535 143.896L129.029 144.394L116.526 158.87L132.154 186.576C149.241 174.917 160.99 166.955 173.394 150.322C185.951 133.351 187.457 113.612 186.288 95.7031C184.821 73.1871 174.962 45.1467 168.982 22.5309C168.163 19.4324 167.382 16.7746 167.246 16.6247C167.11 16.4749 163.1 15.7125 158.332 14.9313C139.893 11.9094 125.942 10.3768 113.791 10.0394C100.423 9.66765 96.3502 9.64546 86.9865 9.89737C81.7765 10.0372 74.6864 10.3557 71.2319 10.6076C62.6031 11.2335 42.6481 13.9558 33.1898 15.798L29.5764 16.5016L28.7081 19.5168C28.2311 21.1748 26.7946 26.3341 25.516 30.9817C24.2374 35.6283 21.8403 44.229 20.1871 50.093C13.5317 73.7087 5.78119 103.085 12.0029 127.753C16.6837 146.312 31.2986 163.358 60.7419 184.295C64.104 186.686 65.4605 187.582 68.8827 189.867L68.9527 165.19L58.5894 161.681L54.3756 145.782L85.0363 129.222L85.0385 129.221ZM156.299 97.7461C158.526 96.218 160.48 95.1338 162.577 94.3203C163.227 89.2254 162.305 82.4803 159.868 74.9272L158.417 70.4327L155.541 71.6989L152.666 72.9652L153.903 76.7927C156.022 83.3492 157.412 92.2872 156.834 95.6542C156.722 96.3101 156.532 97.0359 156.297 97.7439L156.299 97.7461ZM152.821 96.198C154.654 91.0032 152.204 79.6803 147.119 69.8512C142.221 60.3849 137.791 55.4453 133.129 54.2535C131.107 53.7363 130.713 53.8428 129.879 55.1246C128.961 56.5362 127.725 61.6167 128.095 62.4546C128.195 62.681 129.307 62.7387 130.568 62.5844C133.599 62.2116 135.962 63.6909 139.454 68.1421C143.481 73.277 146.573 81.7756 146.495 87.4886C146.394 94.6632 143.592 93.1129 142.908 85.5066C142.38 79.6171 138.509 71.3693 134.842 68.3141C131.533 65.5586 130.653 65.9626 130.62 70.2551C130.568 76.8538 137.933 91.1664 143.966 96.1903C148.732 100.159 151.422 100.161 152.822 96.198H152.821Z" fill="#7300B3"/>
</svg>
