<svg width="650" height="221" viewBox="0 0 650 221" fill="none" xmlns="http://www.w3.org/2000/svg">
<path d="M274.17 171.639H268.032L265.661 137.604L253.386 166.06H248.574L236.298 137.395L233.857 171.639H227.859L230.649 129.793H238.879L251.015 157.551L263.15 129.793H271.38L274.17 171.639Z" fill="#7300B3"/>
<path d="M291.897 166.06H316.935V171.639H285.481V129.793H316.238V135.372H291.897V147.368H314.843V152.948H291.897V166.06Z" fill="#7300B3"/>
<path d="M356.137 129.793H362.136V171.639H354.952L331.866 138.232V171.639H325.938V129.793H333.052L356.137 163.2V129.793Z" fill="#7300B3"/>
<path d="M407.376 129.793V135.442H391.684V171.639H385.198V135.442H369.505V129.793H407.376Z" fill="#7300B3"/>
<path d="M432.241 172.616C419.268 172.616 409.992 163.549 409.992 150.716C409.992 137.883 419.268 128.816 432.31 128.816C445.283 128.816 454.489 137.883 454.489 150.716C454.489 163.549 445.283 172.616 432.241 172.616ZM432.241 166.757C441.377 166.757 447.933 160.201 447.933 150.716C447.933 141.231 441.377 134.605 432.241 134.605C423.174 134.605 416.618 141.231 416.618 150.716C416.618 160.132 423.174 166.757 432.241 166.757Z" fill="#7300B3"/>
<path d="M500.005 171.639H492.333L481.872 154.691H470.154V171.639H463.808V129.793H482.987C493.31 129.793 497.564 135.651 497.564 141.858C497.564 147.299 494.286 152.39 488.079 154.134L500.005 171.639ZM470.154 135.233V149.53H482.848C488.637 149.53 491.148 146.043 491.148 142.137C491.148 138.511 488.428 135.233 482.778 135.233H470.154Z" fill="#7300B3"/>
<path d="M524.646 172.476C517.462 172.476 509.86 169.617 506.373 163.828L510.767 160.48C514.184 164.944 519.973 166.897 524.925 166.897C530.783 166.897 535.177 164.316 535.177 160.341C535.177 155.807 529.598 154.622 523.46 153.297C515.858 151.623 507.489 149.879 507.489 141.231C507.489 133.071 515.091 128.956 523.46 128.956C530.295 128.956 537.06 131.606 540.966 136.976L536.642 140.673C533.643 136.628 528.342 134.396 523.181 134.396C517.95 134.396 513.766 136.697 513.766 140.603C513.766 145.206 519.136 146.322 525.204 147.578C532.806 149.112 541.385 150.925 541.385 159.713C541.385 168.013 533.713 172.476 524.646 172.476Z" fill="#7300B3"/>
<path d="M580.843 129.793H587.259V171.639H580.843V152.948H556.641V171.639H550.225V129.793H556.641V147.368H580.843V129.793Z" fill="#7300B3"/>
<path d="M599.559 171.639V129.793H606.046V171.639H599.559Z" fill="#7300B3"/>
<path d="M632.423 158.876H624.682V171.639H618.335V129.793H632.005C643.094 129.793 649.999 135.581 649.999 144.369C649.999 153.157 643.304 158.876 632.423 158.876ZM631.656 135.512H624.682V153.366H632.423C639.398 153.366 643.582 149.879 643.582 144.578C643.582 139.069 639.189 135.512 631.656 135.512Z" fill="#7300B3"/>
<path fill-rule="evenodd" clip-rule="evenodd" d="M233.403 115L233.362 67.088L256.368 104.588L258.561 104.553L284.997 63.0708L284.931 115.058L302.45 115.002L302.378 49.1625L286.374 48.9404L263.511 85.4021L243.565 52.9088C242.571 51.3399 241.935 49.9609 240.716 48.3142L222.117 48.4308L222.247 50.8525C223.994 51.3999 226.14 51.3655 226.187 56.2965L226.412 114.829L233.403 115.002V115Z" fill="#7300B3"/>
<path fill-rule="evenodd" clip-rule="evenodd" d="M454.869 115.213L454.495 48.4041L447.621 48.413L447.673 90.4264L410.428 52.5446C408.031 49.9608 406.711 48.2387 404.134 48.3952L390.637 48.3064L390.718 50.1274C392.753 50.2473 394.293 51.2721 394.992 53.8326L395.471 115.061L402.582 114.995L402.664 68.4437L446.941 115.434L454.869 115.211V115.213Z" fill="#7300B3"/>
<path fill-rule="evenodd" clip-rule="evenodd" d="M648.108 114.92L648.278 104.148C644.436 105.465 645.204 107.74 632.514 107.87L613.597 107.407L613.587 82.5885L640.99 82.4919L640.909 76.2451C631.791 76.2151 622.674 76.1852 613.556 76.1552L613.515 56.4542C618.483 56.0723 624.728 56.402 629.82 56.412L646.232 56.7451L646.235 49.0682L595.769 48.9805C595.818 70.7611 596.357 93.2923 595.488 114.99L648.109 114.919L648.108 114.92Z" fill="#7300B3"/>
<path fill-rule="evenodd" clip-rule="evenodd" d="M329.776 92.2186L343.49 63.9991L356.451 92.2897L329.776 92.2186ZM311.232 114.986L318.655 114.86L326.666 98.642L359.649 98.7086L367.241 115.095L385.361 114.997L354.378 48.5907L343.585 48.3909L337.882 59.873C333.952 67.9908 311.387 113.201 311.235 114.987L311.232 114.986Z" fill="#7300B3"/>
<path fill-rule="evenodd" clip-rule="evenodd" d="M464.222 57.3579C471.849 56.7395 477.914 56.1599 485.826 56.4019L485.899 115.038L503.441 115.098L503.716 56.4808C507.8 55.7668 520.657 56.6318 524.887 57.3835L525.058 48.9237L464.131 48.8538L464.222 57.359V57.3579Z" fill="#7300B3"/>
<path fill-rule="evenodd" clip-rule="evenodd" d="M587.029 114.857L587.155 106.365C583.202 106.973 580.332 107.451 577.147 107.735C570.282 108.35 557.922 108.624 551.615 107.637C550.525 104.822 550.913 55.9614 551.122 48.8629L533.113 48.7729C533.488 70.2493 534.277 93.6888 533.088 115.002L587.029 114.855V114.857Z" fill="#7300B3"/>
<path fill-rule="evenodd" clip-rule="evenodd" d="M648.107 114.92L595.487 114.991C596.355 93.2933 595.817 70.7621 595.768 48.9814C595.034 50.5537 595.41 77.7684 595.482 81.9566C595.55 85.8906 594.997 114.007 595.489 115.141C598.3 115.725 617.096 115.25 621.782 115.323C624.293 115.361 645.97 115.967 648.109 114.921L648.107 114.92Z" fill="#7300B3"/>
<path fill-rule="evenodd" clip-rule="evenodd" d="M587.028 114.856L533.087 115.003C533.685 104.29 533.435 92.7516 533.399 81.9556C533.363 70.8288 533.306 59.8941 533.113 48.7739L532.734 50.938C533.344 62.2291 533.005 70.4946 533.056 81.9556C533.066 84.3129 532.497 113.739 533.121 115.114C535.755 115.846 566.535 115.213 573.936 115.339C575.93 115.374 585.343 115.906 587.027 114.858L587.028 114.856Z" fill="#7300B3"/>
<path fill-rule="evenodd" clip-rule="evenodd" d="M89.0033 0.0537814C81.3829 0.305697 65.1258 1.4199 59.9814 2.04248C47.6224 3.53954 22.4641 7.7411 21.7814 8.4225C21.6536 8.55012 19.968 14.5839 18.0368 21.8295C14.4312 35.3586 13.256 39.6512 8.59521 56.3276C2.85932 76.8504 -1.87927 98.2356 0.740184 119.706C2.49242 134.072 7.81916 146.588 17.2619 158.521C31.0963 176.007 54.4312 191.922 72.8919 204.231C84.4393 211.931 94.7103 218.654 96.9673 219.989L98.2804 220.765L102.61 218.014C110.704 212.873 135.938 195.903 141.972 191.544C156.751 180.868 163.656 175.129 171.847 166.71C184.246 153.968 190.777 142.842 194.129 128.747C195.937 121.147 196.36 115.731 196.102 103.461C195.74 86.2801 194.708 80.8156 185.444 47.0733C183.107 38.5603 182.251 35.423 177.43 17.7023C176.226 13.2766 175.145 9.34804 175.029 8.97183C174.76 8.10289 174.819 8.11842 166.193 6.61802C140.405 2.13348 123.781 0.418893 102.707 0.0704278C97.4965 -0.0161336 91.3292 -0.023902 89.0011 0.0526716L89.0033 0.0537814ZM92.2031 172.333C96.2035 181.722 98.8796 194.783 105.358 202.176L98.2781 207.109L90.2663 201.153L92.2031 172.333ZM137.164 113.999C132.798 115.329 128.931 116.508 125.407 117.583C126.779 117.563 128.361 117.544 130.199 117.524L143.171 117.381L143.594 115.525C143.771 114.747 144.36 113.163 145.037 111.602C142.76 112.294 140.156 113.086 137.164 113.997V113.999ZM104.689 123.931C101.798 124.821 98.8907 125.719 95.7921 126.678C95.7899 127.504 95.7832 128.378 95.7732 129.284C95.712 134.617 95.7676 138.693 95.8977 138.342C96.0278 137.992 96.4892 136.596 96.9228 135.241C97.9813 131.933 99.748 129.017 102.426 126.157C103.189 125.343 103.938 124.603 104.689 123.931ZM85.0385 129.221L42.8193 141.078C39.3716 137.73 37.5793 134.864 35.22 130.785C31.75 123.374 31.3787 120.991 31.9413 120.477L115.911 71.9642L118.033 70.7334L121.194 79.606C125.526 89.373 128.684 93.994 134.767 99.1001C138.117 101.911 146.766 105.981 147.822 105.516C148.086 105.399 146.765 104.013 144.887 102.436C138.494 97.0636 134.958 93.5157 129.402 80.9332C124.648 70.1674 124.534 69.0455 124.14 63.8607C123.909 60.8255 124.456 58.2719 124.269 58.1975C124.174 58.1598 121.874 59.4305 117.955 61.6689L39.7418 107.14C38.5788 107.816 28.0399 114.352 27.8664 113.891L27.2238 112.18C26.3666 109.898 55.3373 90.7735 58.406 88.5728L55.1694 72.9707C52.6834 60.972 52.6578 60.3216 54.5624 57.9046C55.8955 56.2133 57.4698 55.5086 61.479 54.8072L65.0213 54.1869L67.5474 65.7539C68.9371 72.1151 71.014 79.6304 71.0963 79.6837C71.1786 79.7369 71.8623 79.5416 72.6162 79.2475L73.987 78.7137L70.1268 61.5857L67.1393 46.7226L67.812 45.1423C68.9838 42.3879 69.8922 41.8197 74.7219 40.8198L78.9446 39.9453L82.309 55.6651L85.9347 72.5179L87.4045 72.1007L88.8743 71.6834L85.3554 54.0049C81.9599 36.7569 81.9666 36.8069 83.1384 34.7338C83.7166 33.7106 85.1842 32.5332 86.6373 31.9261C87.7058 31.48 92.9425 30.5312 93.9076 30.6089C94.1766 30.6311 95.1461 34.9347 96.9951 44.3189C98.4771 51.8419 100.207 59.9188 100.838 62.2659L101.853 66.0414C102.799 65.4909 103.718 64.956 104.611 64.4377L102.224 52.1582C99.241 36.8135 99.251 37.202 101.797 34.493C103.036 33.1757 103.197 33.1092 107.19 32.2713L111.308 31.4079L114.724 46.9568L116.997 57.2975C126.538 51.8575 130.593 49.7467 131.372 49.7068C135.863 49.4726 141.482 54.2024 147.04 62.8974C148.917 65.8349 150.614 68.5949 150.811 69.0311C151.062 69.5893 152.487 69.243 155.633 67.858L160.098 65.8915L161.019 67.9768C162.527 71.3871 165.135 80.5737 165.857 85.0194C166.314 87.836 166.454 90.6048 166.304 93.1817C167.402 92.9231 168.581 92.7012 169.878 92.4992C173.987 91.8622 174.91 91.8389 174.91 92.3693C174.91 92.73 172.454 98.2278 168.602 106.494C167.084 109.752 161.878 121.061 158.692 128.018C157.518 130.583 155.385 135.184 153.952 138.242L151.345 143.802L136.535 143.896L129.029 144.394L116.526 158.87L132.154 186.576C149.241 174.917 160.99 166.955 173.394 150.322C185.951 133.351 187.457 113.612 186.288 95.7031C184.821 73.1871 174.962 45.1467 168.982 22.5309C168.163 19.4324 167.382 16.7746 167.246 16.6247C167.11 16.4749 163.1 15.7125 158.332 14.9313C139.893 11.9094 125.942 10.3768 113.791 10.0394C100.423 9.66765 96.3502 9.64546 86.9865 9.89737C81.7765 10.0372 74.6864 10.3557 71.2319 10.6076C62.6031 11.2335 42.6481 13.9558 33.1898 15.798L29.5764 16.5016L28.7081 19.5168C28.2311 21.1748 26.7946 26.3341 25.516 30.9817C24.2374 35.6283 21.8403 44.229 20.1871 50.093C13.5317 73.7087 5.78119 103.085 12.0029 127.753C16.6837 146.312 31.2986 163.358 60.7419 184.295C64.104 186.686 65.4605 187.582 68.8827 189.867L68.9527 165.19L58.5894 161.681L54.3756 145.782L85.0363 129.222L85.0385 129.221ZM156.299 97.7461C158.526 96.218 160.48 95.1338 162.577 94.3203C163.227 89.2254 162.305 82.4803 159.868 74.9272L158.417 70.4327L155.541 71.6989L152.666 72.9652L153.903 76.7927C156.022 83.3492 157.412 92.2872 156.834 95.6542C156.722 96.3101 156.532 97.0359 156.297 97.7439L156.299 97.7461ZM152.821 96.198C154.654 91.0032 152.204 79.6803 147.119 69.8512C142.221 60.3849 137.791 55.4453 133.129 54.2535C131.107 53.7363 130.713 53.8428 129.879 55.1246C128.961 56.5362 127.725 61.6167 128.095 62.4546C128.195 62.681 129.307 62.7387 130.568 62.5844C133.599 62.2116 135.962 63.6909 139.454 68.1421C143.481 73.277 146.573 81.7756 146.495 87.4886C146.394 94.6632 143.592 93.1129 142.908 85.5066C142.38 79.6171 138.509 71.3693 134.842 68.3141C131.533 65.5586 130.653 65.9626 130.62 70.2551C130.568 76.8538 137.933 91.1664 143.966 96.1903C148.732 100.159 151.422 100.161 152.822 96.198H152.821Z" fill="#7300B3"/>
</svg>
